<?xml version="1.0" encoding="utf-8"?>
<!-- Generator: Adobe Illustrator 17.0.0, SVG Export Plug-In . SVG Version: 6.00 Build 0)  -->
<!DOCTYPE svg PUBLIC "-//W3C//DTD SVG 1.1//EN" "http://www.w3.org/Graphics/SVG/1.1/DTD/svg11.dtd">
<svg version="1.1" id="Capa_1" xmlns="http://www.w3.org/2000/svg" xmlns:xlink="http://www.w3.org/1999/xlink" x="0px" y="0px"
	 width="110.239px" height="111.889px" viewBox="0 0 110.239 111.889" enable-background="new 0 0 110.239 111.889"
	 xml:space="preserve">
<g>
	<polygon fill="#F18E25" points="55.119,2.086 59.248,6.115 63.984,2.82 67.394,7.475 72.607,5.004 75.204,10.155 80.753,8.577 
		82.467,14.086 88.199,13.442 88.983,19.158 94.744,19.467 94.576,25.233 100.207,26.486 99.093,32.148 104.441,34.31 
		102.41,39.709 107.329,42.723 104.438,47.715 108.794,51.497 105.119,55.944 108.794,60.392 104.438,64.174 107.329,69.166 
		102.41,72.18 104.441,77.579 99.093,79.741 100.207,85.402 94.576,86.655 94.744,92.422 88.983,92.731 88.199,98.446 
		82.467,97.803 80.753,103.312 75.204,101.733 72.607,106.885 67.394,104.414 63.984,109.068 59.248,105.774 55.119,109.803 
		50.99,105.774 46.255,109.068 42.845,104.414 37.632,106.885 35.034,101.733 29.485,103.312 27.772,97.803 22.038,98.446 
		21.255,92.731 15.494,92.422 15.662,86.655 10.03,85.402 11.146,79.741 5.798,77.579 7.828,72.18 2.909,69.166 5.802,64.174 
		1.444,60.392 5.119,55.944 1.444,51.497 5.802,47.715 2.909,42.723 7.828,39.709 5.798,34.31 11.146,32.148 10.03,26.486 
		15.662,25.233 15.494,19.467 21.255,19.158 22.038,13.442 27.772,14.086 29.485,8.577 35.034,10.155 37.632,5.004 42.845,7.475 
		46.255,2.82 50.99,6.115 	"/>
	<g>
		<g>
			<path fill="#FFFFFF" d="M28.582,51.883v10.482h-3.771l-4.474-7.006v4.634h1.35v2.372h-5.386v-2.372h1.035v-8.109h-1.018v-2.372
				h5.035l4.298,6.749v-4.377H24.46v-2.372h5.281v2.372H28.582z"/>
			<path fill="#FFFFFF" d="M36.025,49.511v2.372h-0.947v3.972c0,2.961,0.632,3.587,1.754,3.587c1.071,0,1.772-0.441,1.772-3.605
				v-3.897h-0.947v-2.428h5.193v2.372h-0.948v4.468c0,4.358-1.736,6.326-5.034,6.326c-3.544-0.11-5.439-2.059-5.439-6.233v-4.542
				h-0.982v-2.391H36.025z"/>
			<path fill="#FFFFFF" d="M54.133,49.511v4.064h-3.035v-1.637h-2.807v2.537h3.333v2.446h-3.333v2.997h2.807v-1.711h3.035v4.156
				H43.554v-2.445h1.105v-7.98h-1.105v-2.428H54.133z"/>
			<path fill="#FFFFFF" d="M62.03,58.245c0.036-0.515,0.281-1.416,0.632-2.335l1.597-4.009h-0.93v-2.391h4.982v2.391h-0.859
				l-4.211,10.463h-3.229l-4.648-10.463h-0.966v-2.391h6.457v2.391h-0.948l1.492,4.119c0.28,0.901,0.508,1.71,0.544,2.225H62.03z"/>
			<path fill="#FFFFFF" d="M75.28,62.364v-2.408h1.666l-0.368-1.251h-3.597l-0.368,1.251h1.368v2.408h-5.579v-2.408h1.193
				l2.368-8.073h-0.719v-2.372h6.736l3.106,10.445h1.227v2.408H75.28z M75.929,56.498l-1.158-3.972l-1.14,3.972H75.929z"/>
			<path fill="#FFFFFF" d="M83.021,57.731h3.263c0,1.545,1.474,1.802,2.211,1.839c0.613,0,1.491-0.147,1.491-0.92
				c0-1.434-6.737-0.827-6.737-5.516c0-2.723,2.456-3.954,4.176-3.954c1.474,0,2.965,0.496,3.667,1.876l0.175-1.545h3.018v4.615
				h-3.175c0-1.36-1.018-2.133-2.246-2.133c-0.509,0-1.211,0.331-1.211,0.975c0,1.894,6.948,1.452,6.948,5.774
				c0,2.868-2.562,3.897-4.649,3.897c-1.772,0-3-0.863-3.667-1.691l-0.193,1.416h-3.069V57.731z"/>
			<path fill="#FFFFFF" d="M97.532,58.54c1.245,0,2.088,0.901,2.088,1.948c0,1.03-0.807,1.894-2.088,1.894
				c-1.141,0-2.001-0.938-2.001-1.894C95.531,59.569,96.269,58.54,97.532,58.54z M95.603,49.511h4.192v3.493l-0.93,4.635h-2.316
				l-0.946-4.635V49.511z"/>
			<path fill="#FFFFFF" d="M13.389,53.316c-1.245,0-2.088-0.901-2.088-1.948c0-1.03,0.807-1.895,2.088-1.895
				c1.141,0,2.001,0.938,2.001,1.895C15.39,52.287,14.652,53.316,13.389,53.316z M15.318,62.346h-4.192v-3.493l0.93-4.635h2.316
				l0.946,4.635V62.346z"/>
		</g>
	</g>
	<g>
		<path fill="none" stroke="#FFFFFF" stroke-miterlimit="10" d="M73.361,41.255c-4.161-5.663-10.867-9.342-18.434-9.342
			s-14.272,3.679-18.434,9.342"/>
		<path fill="none" stroke="#FFFFFF" stroke-miterlimit="10" d="M36.494,68.298c4.161,5.663,10.867,9.342,18.434,9.342
			s14.272-3.679,18.434-9.342"/>
	</g>
</g>
</svg>
