<?xml version="1.0" encoding="utf-8"?>
<!-- Generator: Adobe Illustrator 17.0.0, SVG Export Plug-In . SVG Version: 6.00 Build 0)  -->
<!DOCTYPE svg PUBLIC "-//W3C//DTD SVG 1.1//EN" "http://www.w3.org/Graphics/SVG/1.1/DTD/svg11.dtd">
<svg version="1.1" id="Modo_de_aislamiento" xmlns="http://www.w3.org/2000/svg" xmlns:xlink="http://www.w3.org/1999/xlink"
	 x="0px" y="0px" width="64px" height="65.333px" viewBox="0 0 64 65.333" enable-background="new 0 0 64 65.333"
	 xml:space="preserve">
<g>
	<circle fill="#3E3130" cx="32" cy="32.667" r="28.5"/>
	<g>
		<g>
			<path fill="#F18E25" d="M28.728,14.704L28.728,14.704c2.936,0,9.902,4.653,13.909,10.261c4.7,6.571,5.042,13.505,3.877,16.912
				c-3.302,9.647-10.262,10.182-15.52,10.182c-0.319,0-0.648-0.008-0.974-0.023c-0.326,0.015-0.649,0.023-0.965,0.023l0,0
				c-7.218,0-11.474-4.283-14.123-12.027c-1.165-3.409-2.316-8.496,2.381-15.067C21.319,19.357,25.793,14.704,28.728,14.704"/>
		</g>
		<g>
			<g>
				<path fill="#FFFFFF" d="M33.318,52.824h-0.003c-0.346,0-0.704-0.008-1.062-0.024c-0.358,0.016-0.719,0.024-1.071,0.024
					c-5.792,0-13.457-2.229-17.092-12.853c-1.283-3.753-1.728-9.746,3.449-16.984c4.411-6.175,11.087-10.478,14.321-10.478h0.065
					c3.232,0,9.911,4.302,14.324,10.477c5.174,7.239,5.475,13.232,4.192,16.985C47.521,48.5,41.267,52.824,33.318,52.824z
					 M32.252,51.716h0.025c0.352,0.018,0.699,0.025,1.038,0.025c7.541,0,13.307-3.965,16.1-12.12
					c2.176-6.364-1.342-12.215-4.05-16.005c-4.437-6.211-10.82-10.023-13.441-10.023h-0.038c-2.647,0-9.028,3.813-13.468,10.023
					c-2.708,3.79-5.479,9.641-3.302,16.005c2.75,8.043,8.157,12.12,16.066,12.12c0.344,0,0.696-0.007,1.047-0.025H32.252z"/>
			</g>
			<g>
				<path fill="#FFFFFF" d="M31.945,36.388L31.945,36.388c-0.042,0-0.065,0-0.106,0c-0.362,0-1.719-0.116-3.932-1.591
					c-1.668-1.112-4.337-3.7-4.395-5.912c-0.02-0.829,0.326-1.531,1.001-2.033c1.378-1.026,4.715-1.391,7.379-1.391
					c2.661,0,5.998,0.365,7.375,1.391c0.678,0.503,1.024,1.205,1.001,2.033c-0.057,2.212-2.724,4.799-4.393,5.912
					C33.664,36.272,32.308,36.388,31.945,36.388z M31.884,35.299l0.051,0.004l0.009-0.001c0.125,0,1.276-0.04,3.329-1.406
					c1.851-1.235,3.872-3.513,3.913-5.04c0.01-0.477-0.168-0.838-0.565-1.135c-0.945-0.704-3.651-1.176-6.729-1.176
					c-3.081,0-5.785,0.472-6.731,1.176c-0.397,0.297-0.577,0.658-0.565,1.135c0.04,1.528,2.06,3.806,3.91,5.04
					c2.053,1.367,3.208,1.406,3.332,1.406L31.884,35.299z"/>
			</g>
			<g>
				<path fill="#FFFFFF" d="M28.964,43.37c-0.305,0-0.631-0.027-0.985-0.09c-3.035-0.526-4.051-2.999-4.093-3.104
					c-0.11-0.278,0.025-0.595,0.304-0.704c0.276-0.109,0.591,0.024,0.703,0.302c0.036,0.085,0.855,2.018,3.272,2.438
					c2.351,0.408,3.152-1.083,3.16-1.1c0.138-0.267,0.464-0.369,0.73-0.233c0.265,0.137,0.369,0.463,0.233,0.731
					C32.244,41.69,31.347,43.37,28.964,43.37z"/>
			</g>
			<g>
				<path fill="#FFFFFF" d="M34.818,43.37c-2.384,0-3.28-1.68-3.322-1.759c-0.137-0.267-0.033-0.594,0.234-0.731
					c0.266-0.138,0.591-0.034,0.729,0.233c0.032,0.057,0.839,1.501,3.16,1.1c2.442-0.424,3.263-2.417,3.27-2.438
					c0.11-0.278,0.426-0.412,0.704-0.303c0.278,0.11,0.414,0.426,0.303,0.704c-0.04,0.105-1.057,2.577-4.092,3.104
					C35.452,43.343,35.123,43.37,34.818,43.37z"/>
			</g>
			<g>
				<path fill="#FFFFFF" d="M31.893,41.813c-0.301,0-0.544-0.244-0.544-0.544v-5.427c0-0.299,0.243-0.542,0.544-0.542
					c0.298,0,0.541,0.243,0.541,0.542v5.427C32.434,41.569,32.191,41.813,31.893,41.813z"/>
			</g>
			<g>
				<circle fill="#FFFFFF" cx="14.909" cy="15.947" r="1.987"/>
			</g>
			<g>
				<circle fill="#FFFFFF" cx="48.001" cy="15.947" r="1.987"/>
			</g>
		</g>
		<g>
			<path fill="#DD3A32" d="M31.884,35.299l0.051,0.004l0.009-0.001c0.125,0,1.276-0.04,3.329-1.406
				c1.851-1.235,3.872-3.513,3.913-5.04c0.01-0.477-0.168-0.838-0.565-1.135c-0.945-0.704-3.651-1.176-6.729-1.176
				c-3.081,0-5.785,0.472-6.731,1.176c-0.397,0.297-0.577,0.658-0.565,1.135c0.04,1.528,2.06,3.806,3.91,5.04
				c2.053,1.367,3.208,1.406,3.332,1.406L31.884,35.299z"/>
		</g>
	</g>
</g>
</svg>
