<?xml version="1.0" encoding="utf-8"?>
<!-- Generator: Adobe Illustrator 17.0.0, SVG Export Plug-In . SVG Version: 6.00 Build 0)  -->
<!DOCTYPE svg PUBLIC "-//W3C//DTD SVG 1.1//EN" "http://www.w3.org/Graphics/SVG/1.1/DTD/svg11.dtd">
<svg version="1.1" id="Modo_de_aislamiento" xmlns="http://www.w3.org/2000/svg" xmlns:xlink="http://www.w3.org/1999/xlink"
	 x="0px" y="0px" width="235px" height="157px" viewBox="0 0 235 157" enable-background="new 0 0 235 157" xml:space="preserve">
<g>
	<g>
		<path fill="#F18E25" d="M113.562,23.357L113.562,23.357c4.128,0,13.925,6.543,19.559,14.429c6.609,9.24,7.091,18.99,5.451,23.782
			c-4.644,13.565-14.431,14.317-21.824,14.317c-0.449,0-0.911-0.011-1.369-0.032c-0.459,0.021-0.913,0.032-1.357,0.032l0,0
			c-10.149,0-16.135-6.022-19.859-16.912c-1.639-4.794-3.257-11.947,3.349-21.188C103.145,29.9,109.436,23.357,113.562,23.357"/>
	</g>
	<g>
		<g>
			<path fill="#FFFFFF" d="M120.018,76.962h-0.005c-0.486,0-0.99-0.011-1.494-0.033c-0.503,0.022-1.012,0.033-1.506,0.033
				c-8.145,0-18.923-3.135-24.035-18.074c-1.805-5.277-2.43-13.705,4.85-23.883c6.203-8.684,15.591-14.734,20.138-14.734h0.092
				c4.545,0,13.937,6.049,20.143,14.732c7.275,10.18,7.699,18.607,5.896,23.885C139.989,70.882,131.194,76.962,120.018,76.962z
				 M118.519,75.403h0.035c0.495,0.025,0.983,0.035,1.459,0.035c10.605,0,18.713-5.575,22.64-17.044
				c3.061-8.949-1.888-17.177-5.695-22.506c-6.239-8.733-15.216-14.095-18.9-14.095h-0.054c-3.723,0-12.695,5.361-18.938,14.095
				c-3.808,5.329-7.705,13.557-4.644,22.506c3.867,11.31,11.471,17.044,22.592,17.044c0.483,0,0.979-0.01,1.473-0.035H118.519z"/>
		</g>
		<g>
			<path fill="#FFFFFF" d="M118.086,53.849L118.086,53.849c-0.059,0-0.092,0-0.149,0c-0.51,0-2.418-0.163-5.529-2.237
				c-2.346-1.564-6.099-5.203-6.18-8.313c-0.028-1.165,0.458-2.152,1.408-2.859c1.938-1.442,6.631-1.956,10.376-1.956
				c3.742,0,8.435,0.514,10.371,1.956c0.953,0.707,1.441,1.694,1.408,2.859c-0.08,3.11-3.83,6.749-6.178,8.313
				C120.503,53.686,118.597,53.849,118.086,53.849z M118.001,52.317l0.072,0.006l0.013-0.001c0.176,0,1.795-0.056,4.682-1.978
				c2.604-1.736,5.444-4.939,5.503-7.088c0.015-0.671-0.236-1.179-0.795-1.597c-1.329-0.989-5.135-1.653-9.463-1.653
				c-4.333,0-8.135,0.664-9.465,1.653c-0.558,0.418-0.812,0.926-0.794,1.597c0.056,2.148,2.896,5.352,5.498,7.088
				c2.887,1.922,4.511,1.978,4.685,1.978L118.001,52.317z"/>
		</g>
		<g>
			<path fill="#FFFFFF" d="M113.895,63.667c-0.429,0-0.888-0.038-1.386-0.126c-4.268-0.74-5.696-4.217-5.756-4.364
				c-0.154-0.392,0.035-0.836,0.428-0.99c0.389-0.153,0.831,0.034,0.988,0.425c0.051,0.12,1.202,2.838,4.601,3.429
				c3.307,0.573,4.433-1.523,4.443-1.547c0.193-0.375,0.652-0.519,1.026-0.327c0.373,0.192,0.52,0.651,0.327,1.027
				C118.507,61.305,117.245,63.667,113.895,63.667z"/>
		</g>
		<g>
			<path fill="#FFFFFF" d="M122.127,63.667c-3.353,0-4.612-2.362-4.672-2.474c-0.193-0.376-0.046-0.835,0.329-1.027
				c0.374-0.194,0.831-0.048,1.025,0.327c0.045,0.08,1.18,2.111,4.444,1.547c3.435-0.596,4.588-3.398,4.599-3.428
				c0.154-0.391,0.6-0.579,0.99-0.426c0.391,0.154,0.582,0.599,0.426,0.99c-0.057,0.147-1.486,3.624-5.754,4.364
				C123.018,63.629,122.556,63.667,122.127,63.667z"/>
		</g>
		<g>
			<path fill="#FFFFFF" d="M118.013,61.478c-0.423,0-0.765-0.344-0.765-0.765v-7.631c0-0.421,0.342-0.763,0.765-0.763
				c0.419,0,0.761,0.342,0.761,0.763v7.631C118.773,61.135,118.432,61.478,118.013,61.478z"/>
		</g>
		<g>
			<path fill="#FFFFFF" d="M96.924,25.104c0,1.543-1.253,2.794-2.796,2.794c-1.54,0-2.793-1.251-2.793-2.794
				s1.253-2.795,2.793-2.795C95.671,22.31,96.924,23.561,96.924,25.104z"/>
		</g>
		<g>
			<circle fill="#FFFFFF" cx="140.665" cy="25.104" r="2.793"/>
		</g>
	</g>
	<g>
		<path fill="#DD3A32" d="M118.001,52.317l0.072,0.006l0.013-0.001c0.176,0,1.795-0.056,4.682-1.978
			c2.604-1.736,5.444-4.939,5.503-7.088c0.015-0.671-0.236-1.179-0.795-1.597c-1.329-0.989-5.135-1.653-9.463-1.653
			c-4.333,0-8.135,0.664-9.465,1.653c-0.558,0.418-0.812,0.926-0.794,1.597c0.056,2.148,2.896,5.352,5.498,7.088
			c2.887,1.922,4.511,1.978,4.685,1.978L118.001,52.317z"/>
	</g>
</g>
<g>
	<path fill="#FFFFFF" d="M81.366,139.434c0,3.564-2.889,6.452-6.453,6.452l0,0c-3.564,0-6.456-2.889-6.456-6.452V114
		c0-3.563,2.892-6.453,6.456-6.453l0,0c3.564,0,6.453,2.89,6.453,6.453V139.434z"/>
	<path fill="#FFFFFF" d="M182.199,134.25l-8.052-9.434l6.769-7.932c2.313-2.712,1.991-6.788-0.722-9.101
		c-2.709-2.312-6.785-1.991-9.098,0.721l-7.197,8.439v-3.936c0-3.565-2.892-6.455-6.456-6.455c-3.564,0-6.454,2.89-6.454,6.455
		v25.431c0,3.564,2.89,6.453,6.454,6.453c3.564,0,6.456-2.889,6.456-6.453v-5.752l8.48,9.94c2.311,2.711,6.385,3.034,9.099,0.72
		C184.189,141.036,184.511,136.964,182.199,134.25z"/>
	<path fill="#FFFFFF" d="M141.548,107.547c-3.565,0-6.454,2.89-6.454,6.453v9.229c-0.101-0.009-0.195-0.031-0.297-0.031h-5.194
		c-0.103,0-0.197,0.022-0.299,0.031V114c0-3.563-2.888-6.453-6.452-6.453c-3.565,0-6.454,2.89-6.454,6.453v25.434
		c0,3.564,2.889,6.452,6.454,6.452c3.565,0,6.452-2.889,6.452-6.452v-7.333c0.102,0.008,0.196,0.031,0.299,0.031h5.194
		c0.102,0,0.196-0.023,0.297-0.031v7.333c0,3.564,2.889,6.452,6.454,6.452c3.562,0,6.452-2.889,6.452-6.452V114
		C148,110.437,145.11,107.547,141.548,107.547z"/>
	<path fill="#FFFFFF" d="M108.726,122.734l-3.078-1.352c-0.007-0.006-5.021-2.21-5.021-2.21c-0.561-0.249-0.814-0.9-0.566-1.461
		c0.246-0.561,0.898-0.816,1.459-0.567l4.889,2.147c2.441-0.688,4.236-2.928,4.236-5.593c0-3.212-2.606-5.814-5.818-5.814h-8.328
		c-6.799,0-12.33,5.529-12.33,12.327c0,9.221,9.595,12.176,9.569,12.252l3.595,1.582c0.56,0.249,0.815,0.9,0.568,1.461
		c-0.248,0.559-0.899,0.816-1.46,0.568l-4.872-2.143h-1.4c-3.212,0-5.817,2.605-5.817,5.816c0,3.212,2.605,5.816,5.817,5.816h12.147
		c6.798,0,12.328-5.53,12.328-12.33C114.643,128.788,112.267,124.9,108.726,122.734z"/>
	<path fill="#FFFFFF" d="M189.378,107.614c0.022-0.018,0.042-0.04,0.065-0.058c2.767-2.248,7.037-1.574,9.536,1.505l20.209,24.872
		c2.499,3.08,2.285,7.396-0.48,9.644c-2.767,2.248-7.036,1.574-9.537-1.503l-9.818-12.086v8.462c0,3.566-2.891,6.455-6.453,6.455
		c-3.567,0-6.457-2.889-6.457-6.455v-25.428C186.442,110.755,187.612,108.767,189.378,107.614z"/>
	<path fill="#FFFFFF" d="M62.612,108.436c-0.025-0.021-0.041-0.041-0.066-0.061c-2.766-2.249-7.038-1.573-9.538,1.505l-7.539,9.28
		l0.026-5.432c0.025-0.318,0.025-0.636,0.007-0.952l0.001-0.345l-0.031,0.048c-0.176-1.591-0.9-3.07-2.176-4.104
		c-2.767-2.249-7.035-1.573-9.538,1.505l-20.207,24.872c-2.501,3.081-2.282,7.397,0.481,9.645c2.533,2.057,6.321,1.66,8.861-0.782
		l12.622-15.647c0.37-0.457,1.042-0.529,1.499-0.159c0.46,0.368,0.531,1.04,0.161,1.497l-4.65,5.766l0.023,0.025
		c-2.22,3.051-1.931,7.133,0.733,9.3c2.767,2.249,7.038,1.575,9.538-1.504l9.817-12.084v8.461c0,3.565,2.891,6.454,6.456,6.454
		c3.564,0,6.454-2.889,6.454-6.454v-25.431C65.547,111.574,64.378,109.587,62.612,108.436z"/>
</g>
<g>
	<path fill="#F39845" d="M67.267,97.478l-3.587-5.826h-0.04l0.053,5.826h-2.088v-8.909h2.451l3.574,5.814h0.039l-0.051-5.814h2.09
		v8.909H67.267z"/>
	<path fill="#F39845" d="M72.486,97.478v-8.909h2.164v8.909H72.486z"/>
	<path fill="#F39845" d="M77.434,97.478v-8.909h5.988v1.812h-3.911v1.687h3.697v1.723h-3.697v1.85h4.139v1.837H77.434z"/>
	<path fill="#F39845" d="M90.433,97.478H88.28l-3.372-8.909h2.416l2.063,6.317h0.053l2.049-6.317h2.379L90.433,97.478z"/>
	<path fill="#F39845" d="M95.542,97.478v-8.909h5.991v1.812h-3.914v1.687h3.698v1.723h-3.698v1.85h4.141v1.837H95.542z"/>
	<path fill="#F39845" d="M116.533,92.997c0,0.781-0.146,1.456-0.435,2.021c-0.291,0.567-0.671,1.032-1.146,1.397
		c-0.473,0.363-1.006,0.632-1.604,0.804c-0.596,0.173-1.198,0.259-1.812,0.259h-3.32v-8.909h3.221c0.631,0,1.251,0.073,1.863,0.22
		c0.613,0.147,1.159,0.391,1.635,0.729c0.48,0.341,0.866,0.796,1.159,1.367C116.387,91.454,116.533,92.158,116.533,92.997z
		 M114.294,92.997c0-0.502-0.081-0.919-0.247-1.251c-0.163-0.332-0.381-0.596-0.653-0.791c-0.273-0.199-0.583-0.34-0.933-0.425
		c-0.347-0.082-0.705-0.125-1.074-0.125h-1.071v5.211h1.021c0.387,0,0.757-0.046,1.113-0.134c0.356-0.088,0.671-0.231,0.944-0.435
		c0.273-0.199,0.49-0.468,0.653-0.805C114.213,93.908,114.294,93.493,114.294,92.997z"/>
	<path fill="#F39845" d="M118.898,97.478v-8.909h5.99v1.812h-3.914v1.687h3.698v1.723h-3.698v1.85h4.141v1.837H118.898z"/>
	<path fill="#F39845" d="M131.571,97.478v-8.909h2.164v7.034h3.448v1.875H131.571z"/>
	<path fill="#F39845" d="M139.134,97.478v-8.909h5.99v1.812h-3.914v1.687h3.699v1.723h-3.699v1.85h4.141v1.837H139.134z"/>
	<path fill="#F39845" d="M154.098,97.321c-0.58,0.264-1.244,0.395-2.002,0.395c-0.688,0-1.323-0.11-1.906-0.338
		c-0.585-0.227-1.088-0.548-1.518-0.963c-0.428-0.416-0.764-0.912-1.005-1.492c-0.245-0.579-0.366-1.216-0.366-1.912
		c0-0.713,0.124-1.359,0.371-1.939c0.247-0.577,0.591-1.07,1.025-1.478c0.438-0.407,0.949-0.72,1.536-0.938
		c0.587-0.218,1.221-0.327,1.9-0.327c0.629,0,1.249,0.11,1.857,0.333c0.607,0.223,1.102,0.549,1.48,0.978l-1.461,1.459
		c-0.201-0.276-0.464-0.483-0.793-0.617c-0.327-0.135-0.663-0.202-1.006-0.202c-0.378,0-0.724,0.069-1.037,0.207
		c-0.317,0.14-0.585,0.331-0.814,0.572c-0.225,0.245-0.401,0.533-0.528,0.863c-0.124,0.333-0.188,0.695-0.188,1.089
		c0,0.404,0.064,0.773,0.188,1.106c0.127,0.337,0.3,0.625,0.523,0.863c0.222,0.239,0.488,0.427,0.799,0.561
		c0.312,0.133,0.65,0.199,1.019,0.199c0.428,0,0.802-0.084,1.12-0.251c0.32-0.165,0.574-0.386,0.767-0.654l1.499,1.41
		C155.163,96.698,154.678,97.057,154.098,97.321z"/>
	<path fill="#F39845" d="M163.044,97.478v-3.725h-3.473v3.725h-2.152v-8.909h2.152v3.372h3.473v-3.372h2.152v8.909H163.044z"/>
	<path fill="#F39845" d="M167.979,97.478v-8.909h5.989v1.812h-3.915v1.687h3.7v1.723h-3.7v1.85h4.142v1.837H167.979z"/>
</g>
</svg>
